<svg width="331" height="101" viewBox="0 0 331 101" fill="none" xmlns="http://www.w3.org/2000/svg">
<path d="M51.312 57.936C51.312 59.792 50.352 61.072 48.496 61.648C49.392 62.16 49.84 62.992 49.84 64.144C49.84 66.256 48.24 68.432 45.936 68.432C45.616 68.432 45.36 68.368 45.04 68.24C45.168 68.688 45.232 69.136 45.232 69.52C45.232 71.76 43.504 73.808 41.264 73.808C40.176 73.808 39.216 73.36 38.448 72.4C37.744 73.232 36.784 73.68 35.568 73.68C34.288 73.68 33.264 73.232 32.496 72.4C31.792 73.232 30.832 73.68 29.744 73.68C27.696 73.68 25.584 72.208 25.584 70.224C25.584 69.648 25.84 69.008 26.288 68.432C26.16 68.496 25.84 68.496 25.392 68.496C23.28 68.496 21.168 66.256 21.168 64.208C21.168 63.12 21.68 62.224 22.704 61.648C20.848 61.136 19.952 60.048 19.952 58.384C19.952 56.4 21.744 55.184 23.984 55.184C26.288 55.184 27.44 56.144 27.44 58.064C27.44 59.408 26.992 60.432 26.096 61.136C27.824 61.52 28.72 62.672 28.72 64.528C28.72 65.552 28.464 66.448 27.888 67.28C28.336 67.088 28.976 67.024 29.68 67.024C30.896 67.024 31.856 67.408 32.56 68.112C33.392 67.408 34.416 67.024 35.632 67.024C36.848 67.024 37.808 67.344 38.512 68.048C39.536 66.96 40.688 66.384 41.968 66.384C42.224 66.384 42.544 66.384 42.8 66.448C42.48 65.808 42.352 65.104 42.352 64.4C42.352 62.544 43.376 61.456 45.424 61.136C44.336 60.24 43.76 58.96 43.76 57.36C43.76 56.848 43.888 56.336 44.08 55.76C43.888 55.76 43.696 55.824 43.504 55.824C41.264 55.824 38.576 54.416 38.576 52.112C38 52.816 37.296 53.2 36.528 53.2C34.416 53.2 31.984 50.896 31.28 49.04C30.64 49.424 29.936 49.616 29.168 49.616C26.416 49.616 23.984 47.696 23.984 45.584C23.984 45.072 24.176 44.496 24.496 43.92H24.112C21.872 43.92 20.208 42.448 20.208 40.208C20.208 38.224 21.232 37.136 23.344 36.816C22.64 36.112 22.256 35.344 22.256 34.576C22.256 32.464 24.368 30.608 26.48 30.608C26.8 30.608 27.056 30.608 27.184 30.672C26.608 29.84 26.288 29.072 26.288 28.496C26.288 26.448 28.592 24.976 30.64 24.976C31.792 24.976 32.688 25.424 33.264 26.32C34.096 25.616 35.12 25.296 36.4 25.296C37.552 25.296 38.512 25.68 39.216 26.384C40.048 25.616 41.008 25.232 42.096 25.232C44.08 25.232 45.936 26.384 45.936 28.368C45.936 28.944 45.68 29.712 45.232 30.544C45.68 30.48 46 30.416 46.32 30.416C48.432 30.416 50.416 32.208 50.416 34.32C50.416 36.688 49.2 37.904 46.832 37.904C44.72 37.904 42.864 36.432 42.864 34.32C42.864 33.232 43.056 32.4 43.504 31.824C43.056 31.888 42.736 31.952 42.288 31.952C41.072 31.952 39.984 31.504 39.152 30.672C38.448 31.504 37.488 31.952 36.272 31.952C35.056 31.952 34.096 31.568 33.264 30.736C32.56 31.568 31.6 32.016 30.384 32.016C29.872 32.016 29.488 32.016 29.296 31.952C29.744 32.656 30 33.424 30 34.192C30 36.432 28.912 37.648 26.8 37.904C27.44 38.48 27.76 39.312 27.76 40.272C27.76 40.976 27.568 41.68 27.248 42.256H27.76C30.128 42.256 32.944 43.856 32.944 46.096V46.608C33.392 46.544 33.904 46.48 34.608 46.48C37.424 46.48 39.216 47.824 39.216 49.872C39.92 48.912 40.944 48.4 42.16 48.4C44.528 48.4 46.832 50 46.832 52.368C46.832 53.072 46.64 53.712 46.256 54.416C46.704 54.352 47.024 54.288 47.344 54.288C49.584 54.288 51.312 55.696 51.312 57.936ZM94.882 40.336C94.882 42.384 93.858 43.6 91.874 43.92C92.45 44.368 92.77 45.008 92.77 45.712C92.77 48.016 90.786 49.872 88.546 49.872H88.226C88.546 50.448 88.674 51.152 88.674 51.984C88.674 54.096 87.138 55.888 85.026 55.888C83.81 55.888 82.786 55.44 81.954 54.544C81.378 55.376 80.546 55.824 79.522 55.824C78.178 55.824 77.09 55.312 76.194 54.288C75.49 55.312 74.466 55.824 73.122 55.824C71.778 55.824 70.754 55.376 69.986 54.48C69.666 54.928 69.346 55.248 68.898 55.44C70.05 55.952 70.626 56.912 70.626 58.256C70.626 59.728 70.05 60.752 68.898 61.328C69.986 61.904 70.498 62.864 70.498 64.208C70.498 65.68 69.922 66.704 68.706 67.28C69.858 67.856 70.434 68.816 70.434 70.096C70.434 72.976 69.218 74.384 67.17 74.384C64.866 74.384 62.946 72.336 62.946 70.096C62.946 68.816 63.65 67.856 65.058 67.28C63.714 66.64 63.01 65.616 63.01 64.272C63.01 62.928 63.714 61.904 65.122 61.328C63.778 60.688 63.138 59.728 63.138 58.384C63.138 57.04 63.842 56.016 65.25 55.44C63.906 54.8 63.202 53.776 63.202 52.368C63.202 51.024 63.842 50.064 65.186 49.488C63.842 48.912 63.202 48.016 63.202 46.736C63.202 45.264 63.842 44.176 65.186 43.408C63.97 42.704 63.33 41.616 63.33 40.208C63.33 38.864 63.906 37.904 65.122 37.264C64.034 36.56 63.522 35.664 63.522 34.448C63.522 33.232 64.162 32.272 65.442 31.632C64.098 31.056 63.458 30.288 63.458 29.2C63.458 26.96 65.89 24.976 68.002 24.976C68.962 24.976 69.794 25.424 70.498 26.256C71.33 25.424 72.418 25.04 73.762 25.04C74.978 25.04 75.874 25.488 76.45 26.32C77.282 25.616 78.306 25.296 79.522 25.296C80.738 25.296 81.698 25.68 82.402 26.384C83.298 25.616 84.322 25.232 85.538 25.232C87.906 25.232 89.058 26.32 89.058 28.432C89.058 29.264 88.802 30.096 88.354 30.928H88.738C90.978 30.928 93.026 32.336 93.026 34.576C93.026 35.536 92.578 36.432 91.682 37.2C93.794 37.328 94.882 38.352 94.882 40.336ZM88.802 43.216C87.714 42.512 87.202 41.616 87.202 40.464C87.202 39.312 87.65 38.48 88.61 37.904C86.818 37.584 85.282 35.984 85.282 34.192C85.282 33.68 85.41 33.168 85.666 32.72C84.322 32.72 83.17 32.08 82.274 30.8C81.57 31.568 80.61 31.952 79.458 31.952C78.242 31.952 77.282 31.568 76.45 30.736C75.746 31.568 74.786 32.016 73.57 32.016C72.226 32.016 71.202 31.568 70.37 30.672C70.05 31.056 69.666 31.312 69.154 31.504C70.434 32.016 71.074 32.976 71.074 34.384C71.074 35.728 70.498 36.752 69.41 37.392C70.434 38.096 70.946 39.12 70.946 40.336C70.946 41.68 70.434 42.64 69.41 43.28C70.37 43.92 70.882 44.88 70.882 46.16C70.882 47.696 70.242 48.784 68.962 49.424C69.41 49.616 69.73 49.872 70.05 50.256C70.882 49.488 71.906 49.104 73.122 49.104C74.338 49.104 75.298 49.424 75.938 50.128C76.77 49.488 77.794 49.168 79.01 49.168C80.226 49.168 81.122 49.488 81.762 50.128C82.722 48.784 84.002 48.016 85.602 47.952C85.282 47.376 85.09 46.864 85.09 46.416C85.09 44.56 86.306 43.472 88.802 43.216ZM137.876 69.2C137.876 71.504 135.764 73.68 133.652 73.68C132.564 73.68 131.732 73.296 131.092 72.464C130.388 73.296 129.492 73.68 128.276 73.68C127.06 73.68 125.972 73.232 125.14 72.4C124.436 73.232 123.476 73.68 122.26 73.68C121.044 73.68 120.02 73.232 119.188 72.4C118.484 73.232 117.524 73.68 116.308 73.68C115.22 73.68 114.196 73.296 113.364 72.592C112.852 73.808 112.02 74.384 110.804 74.384C108.756 74.384 106.324 72.144 106.324 70.032C106.324 68.816 107.092 67.92 108.628 67.28C107.22 66.64 106.516 65.616 106.516 64.272C106.516 62.864 107.22 61.904 108.692 61.328C107.348 60.688 106.708 59.728 106.708 58.384C106.708 57.04 107.412 56.016 108.82 55.44C107.476 54.8 106.772 53.776 106.772 52.368C106.772 51.024 107.412 50.064 108.756 49.488C107.412 48.912 106.772 48.016 106.772 46.736C106.772 45.264 107.412 44.176 108.756 43.408C107.54 42.768 106.9 41.68 106.9 40.208C106.9 38.864 107.476 37.904 108.692 37.264C107.604 36.56 107.028 35.6 107.028 34.448C107.028 33.232 107.668 32.272 108.948 31.632C107.668 31.056 107.028 30.224 107.028 29.008C107.028 26.896 109.268 25.104 111.38 25.104C113.62 25.104 114.708 26.192 114.708 28.368C114.708 29.904 113.94 30.928 112.724 31.504C114.004 32.016 114.644 32.976 114.644 34.384C114.644 35.728 114.068 36.752 112.916 37.392C114.004 38.096 114.516 39.056 114.516 40.336C114.516 41.68 114.004 42.64 112.916 43.28C113.876 43.92 114.388 44.88 114.388 46.16C114.388 47.696 113.748 48.784 112.468 49.424C113.684 49.872 114.26 50.832 114.26 52.304C114.26 53.776 113.62 54.8 112.404 55.44C113.62 55.952 114.196 56.912 114.196 58.256C114.196 59.728 113.62 60.752 112.404 61.328C113.492 61.904 114.068 62.864 114.068 64.208C114.068 65.68 113.492 66.704 112.276 67.28C112.66 67.536 112.98 67.792 113.3 68.112C114.132 67.408 115.156 67.024 116.372 67.024C117.588 67.024 118.548 67.408 119.252 68.112C120.084 67.408 121.172 67.024 122.388 67.024C123.54 67.024 124.5 67.408 125.204 68.112C126.036 67.408 127.124 67.024 128.34 67.024C129.556 67.024 130.58 67.408 131.284 68.112C132.116 67.344 133.268 66.96 134.804 66.96C136.852 66.96 137.876 67.728 137.876 69.2ZM175.494 28.368C175.43 30.416 173.83 31.952 171.782 31.952C170.63 31.952 169.606 31.504 168.774 30.672C168.454 31.056 168.134 31.312 167.686 31.504C168.838 32.08 169.414 33.04 169.414 34.384C169.414 35.92 168.838 36.944 167.622 37.52C168.774 38.032 169.35 38.928 169.35 40.272C169.35 42.064 168.582 43.216 166.982 43.728C168.582 44.56 169.414 45.776 169.414 47.376C169.414 48.592 168.774 49.296 167.43 49.616C168.518 50.128 169.094 51.088 169.094 52.432C169.094 53.904 168.518 54.864 167.366 55.44C168.454 56.016 168.966 56.912 168.966 58.256C168.966 59.6 168.454 60.624 167.366 61.264C168.39 61.712 168.902 62.544 168.902 63.632C168.902 65.36 168.134 66.576 166.662 67.152C167.238 67.344 167.686 67.664 168.134 68.112C168.966 67.408 169.99 67.024 171.206 67.024C173.574 67.024 174.726 68.048 174.726 70.096C174.726 72.144 173.126 73.68 171.078 73.68C169.926 73.68 168.902 73.232 168.07 72.4C167.366 73.232 166.406 73.68 165.19 73.68C163.974 73.68 162.886 73.232 162.054 72.4C161.35 73.232 160.39 73.68 159.302 73.68C157.062 73.68 155.334 72.208 155.334 70.096C155.334 68.24 157.062 67.024 159.302 67.024C160.518 67.024 161.478 67.408 162.182 68.112C162.63 67.664 163.142 67.344 163.782 67.152C162.182 66.576 161.35 65.552 161.35 64.208C161.35 62.864 162.054 61.968 163.526 61.392C162.182 60.752 161.478 59.728 161.478 58.384C161.478 56.784 162.31 55.76 163.91 55.248C162.31 54.416 161.542 53.328 161.542 51.92C161.542 50.576 162.438 49.744 164.166 49.36C162.438 48.784 161.606 47.696 161.606 46.032C161.606 44.752 162.31 43.856 163.654 43.408C162.374 42.768 161.734 41.808 161.734 40.464C161.734 39.12 162.438 38.096 163.846 37.52C162.502 36.88 161.862 35.856 161.862 34.448C161.862 33.104 162.566 32.08 163.974 31.504C163.526 31.312 163.206 31.056 162.886 30.736C162.182 31.568 161.222 32.016 160.07 32.016C157.83 32.016 155.974 30.48 155.974 28.368C155.974 26.384 158.086 24.976 160.134 24.976C161.35 24.976 162.31 25.424 162.886 26.32C163.718 25.616 164.742 25.296 165.958 25.296C167.174 25.296 168.134 25.68 168.838 26.384C169.67 25.68 170.694 25.296 171.91 25.296C174.278 25.296 175.494 26.32 175.494 28.368ZM224.376 28.368C224.312 30.736 223.16 31.952 221.048 31.952C219.832 31.952 218.808 31.44 217.848 30.416C217.208 31.44 216.184 31.952 214.84 31.952C213.624 31.952 212.536 31.504 211.704 30.672C211.512 31.056 211.128 31.312 210.616 31.504C211.832 32.08 212.408 33.04 212.408 34.384C212.408 35.856 211.768 36.944 210.552 37.52C211.768 38.032 212.344 38.928 212.344 40.272C212.344 42.064 211.576 43.216 209.976 43.728C211.576 44.56 212.408 45.776 212.408 47.376C212.408 48.592 211.768 49.296 210.424 49.616C211.512 50.128 212.024 51.088 212.024 52.432C212.024 53.84 211.448 54.864 210.36 55.44C211.448 56.016 211.96 56.912 211.96 58.256C211.96 59.6 211.448 60.624 210.36 61.264C211.384 61.712 211.896 62.544 211.896 63.632C211.896 65.424 211.128 66.576 209.592 67.152C211 67.6 211.704 68.624 211.704 70.096C211.704 72.464 210.488 73.68 208.12 73.68C205.88 73.68 204.216 72.208 204.216 70.096C204.216 68.624 205.176 67.664 206.712 67.152C205.112 66.576 204.28 65.552 204.28 64.208C204.28 62.928 205.048 61.968 206.52 61.392C205.176 60.752 204.472 59.728 204.472 58.384C204.472 56.784 205.304 55.76 206.904 55.248C205.304 54.416 204.536 53.328 204.536 51.92C204.536 50.576 205.368 49.744 207.096 49.36C205.368 48.784 204.536 47.696 204.536 46.032C204.536 44.752 205.24 43.856 206.584 43.408C205.304 42.768 204.664 41.808 204.664 40.464C204.664 39.12 205.368 38.096 206.776 37.52C205.432 36.88 204.792 35.856 204.792 34.448C204.792 33.04 205.496 32.08 206.968 31.504C206.52 31.312 206.136 31.056 205.816 30.736C205.112 31.568 204.152 32.016 203 32.016C201.656 32.016 200.568 31.568 199.736 30.672C199.032 31.504 197.944 31.952 196.6 31.952C194.552 31.952 192.888 30.672 192.888 29.072C192.888 26.832 195.064 25.04 197.304 25.04C198.392 25.04 199.224 25.424 199.864 26.256C200.696 25.424 201.784 25.04 203.128 25.04C204.344 25.04 205.24 25.488 205.816 26.32C206.648 25.616 207.672 25.296 208.952 25.296C210.168 25.296 211.128 25.68 211.832 26.384C212.664 25.68 213.688 25.296 214.904 25.296C215.928 25.296 216.824 25.552 217.528 26.064C218.232 25.488 219.192 25.232 220.408 25.232C223.032 25.232 224.376 26.256 224.376 28.368ZM267.562 57.936C267.562 59.792 266.602 61.072 264.746 61.648C265.642 62.16 266.09 62.992 266.09 64.144C266.09 66.256 264.49 68.432 262.186 68.432C261.866 68.432 261.61 68.368 261.29 68.24C261.418 68.688 261.482 69.136 261.482 69.52C261.482 71.76 259.754 73.808 257.514 73.808C256.426 73.808 255.466 73.36 254.698 72.4C253.994 73.232 253.034 73.68 251.818 73.68C250.538 73.68 249.514 73.232 248.746 72.4C248.042 73.232 247.082 73.68 245.994 73.68C243.946 73.68 241.834 72.208 241.834 70.224C241.834 69.648 242.09 69.008 242.538 68.432C242.41 68.496 242.09 68.496 241.642 68.496C239.53 68.496 237.418 66.256 237.418 64.208C237.418 63.12 237.93 62.224 238.954 61.648C237.098 61.136 236.202 60.048 236.202 58.384C236.202 56.4 237.994 55.184 240.234 55.184C242.538 55.184 243.69 56.144 243.69 58.064C243.69 59.408 243.242 60.432 242.346 61.136C244.074 61.52 244.97 62.672 244.97 64.528C244.97 65.552 244.714 66.448 244.138 67.28C244.586 67.088 245.226 67.024 245.93 67.024C247.146 67.024 248.106 67.408 248.81 68.112C249.642 67.408 250.666 67.024 251.882 67.024C253.098 67.024 254.058 67.344 254.762 68.048C255.786 66.96 256.938 66.384 258.218 66.384C258.474 66.384 258.794 66.384 259.05 66.448C258.73 65.808 258.602 65.104 258.602 64.4C258.602 62.544 259.626 61.456 261.674 61.136C260.586 60.24 260.01 58.96 260.01 57.36C260.01 56.848 260.138 56.336 260.33 55.76C260.138 55.76 259.946 55.824 259.754 55.824C257.514 55.824 254.826 54.416 254.826 52.112C254.25 52.816 253.546 53.2 252.778 53.2C250.666 53.2 248.234 50.896 247.53 49.04C246.89 49.424 246.186 49.616 245.418 49.616C242.666 49.616 240.234 47.696 240.234 45.584C240.234 45.072 240.426 44.496 240.746 43.92H240.362C238.122 43.92 236.458 42.448 236.458 40.208C236.458 38.224 237.482 37.136 239.594 36.816C238.89 36.112 238.506 35.344 238.506 34.576C238.506 32.464 240.618 30.608 242.73 30.608C243.05 30.608 243.306 30.608 243.434 30.672C242.858 29.84 242.538 29.072 242.538 28.496C242.538 26.448 244.842 24.976 246.89 24.976C248.042 24.976 248.938 25.424 249.514 26.32C250.346 25.616 251.37 25.296 252.65 25.296C253.802 25.296 254.762 25.68 255.466 26.384C256.298 25.616 257.258 25.232 258.346 25.232C260.33 25.232 262.186 26.384 262.186 28.368C262.186 28.944 261.93 29.712 261.482 30.544C261.93 30.48 262.25 30.416 262.57 30.416C264.682 30.416 266.666 32.208 266.666 34.32C266.666 36.688 265.45 37.904 263.082 37.904C260.97 37.904 259.114 36.432 259.114 34.32C259.114 33.232 259.306 32.4 259.754 31.824C259.306 31.888 258.986 31.952 258.538 31.952C257.322 31.952 256.234 31.504 255.402 30.672C254.698 31.504 253.738 31.952 252.522 31.952C251.306 31.952 250.346 31.568 249.514 30.736C248.81 31.568 247.85 32.016 246.634 32.016C246.122 32.016 245.738 32.016 245.546 31.952C245.994 32.656 246.25 33.424 246.25 34.192C246.25 36.432 245.162 37.648 243.05 37.904C243.69 38.48 244.01 39.312 244.01 40.272C244.01 40.976 243.818 41.68 243.498 42.256H244.01C246.378 42.256 249.194 43.856 249.194 46.096V46.608C249.642 46.544 250.154 46.48 250.858 46.48C253.674 46.48 255.466 47.824 255.466 49.872C256.17 48.912 257.194 48.4 258.41 48.4C260.778 48.4 263.082 50 263.082 52.368C263.082 53.072 262.89 53.712 262.506 54.416C262.954 54.352 263.274 54.288 263.594 54.288C265.834 54.288 267.562 55.696 267.562 57.936ZM310.876 28.368C310.876 30.736 309.788 31.952 307.676 31.952C307.292 31.952 307.036 31.952 306.908 31.888C307.804 32.464 308.252 33.296 308.252 34.256C308.252 36.24 306.716 38.096 304.86 38.544C305.308 38.992 305.5 39.568 305.5 40.336C305.5 42.32 303.644 43.92 301.596 43.92H300.956C301.66 44.496 301.98 45.264 301.98 46.224C301.98 48.464 300.38 49.936 298.332 49.936C298.14 49.936 298.012 49.872 297.82 49.872C298.268 50.576 298.524 51.408 298.524 52.304C298.524 53.776 297.948 54.8 296.732 55.44C297.884 56.016 298.46 56.976 298.46 58.256C298.46 59.6 297.948 60.624 296.86 61.264C297.884 61.712 298.396 62.544 298.396 63.632C298.396 65.424 297.628 66.576 296.092 67.152C297.5 67.6 298.204 68.624 298.204 70.096C298.204 72.464 296.988 73.68 294.62 73.68C292.38 73.68 290.716 72.208 290.716 70.096C290.716 68.624 291.676 67.664 293.212 67.152C291.612 66.704 290.78 65.68 290.78 64.208C290.78 62.928 291.548 61.968 293.02 61.392C291.676 60.752 290.972 59.728 290.972 58.32C290.972 56.976 291.676 55.952 293.084 55.376C291.74 54.672 291.036 53.456 291.036 51.728C291.036 51.152 291.1 50.512 291.228 49.808C289.244 49.808 287.708 47.696 287.708 45.648C287.708 44.944 287.9 44.368 288.22 43.92C286.172 43.728 284.572 42.192 284.572 40.208C284.572 39.504 284.764 38.864 285.212 38.16C283.228 38.096 281.308 36.368 281.308 34.384C281.308 33.296 281.756 32.528 282.716 31.952C280.476 31.76 279.388 30.8 279.388 29.072C279.388 26.832 281.628 25.104 283.74 25.104C285.98 25.104 287.068 26.192 287.068 28.368C286.94 29.648 286.492 30.608 285.66 31.248C287.9 31.312 289.052 32.4 289.052 34.448C289.052 35.28 288.796 36.048 288.22 36.752C290.332 36.752 292.188 38.224 292.188 40.336C292.188 41.168 291.996 41.872 291.548 42.448C293.276 42.512 294.492 43.152 295.196 44.368C296.028 43.536 297.052 43.088 298.204 43.088C298.652 43.088 298.908 43.152 299.42 43.216C298.332 42.512 297.82 41.68 297.82 40.592C297.82 38.736 299.484 37.264 301.468 37.2C300.828 36.432 300.508 35.6 300.508 34.64C300.508 32.592 302.364 31.248 304.476 31.248C304.924 31.248 305.244 31.248 305.308 31.312C303.964 30.48 303.26 29.328 303.26 27.792C303.26 26.064 305.052 25.232 306.908 25.232C309.532 25.232 310.876 26.256 310.876 28.368ZM294.62 47.696L294.684 47.824V47.632L294.62 47.696Z" fill="#0047EC"/>
</svg>
